Coordinates
version=1
nRows=9
nColumns=24
inDegrees=yes

Units are S.I. units (second, meters, Newtons, ...)
Angles are in degrees.

endheader
time	pelvis_tilt	pelvis_list	pelvis_rotation	pelvis_tx	pelvis_ty	pelvis_tz	hip_flexion_r	hip_adduction_r	hip_rotation_r	knee_angle_r	ankle_angle_r	subtalar_angle_r	mtp_angle_r	hip_flexion_l	hip_adduction_l	hip_rotation_l	knee_angle_l	ankle_angle_l	subtalar_angle_l	mtp_angle_l	lumbar_extension	lumbar_bending	lumbar_rotation
      3.04500000	     -5.96910432	     -7.00713307	      0.06550126	     -2.20145707	     -0.01572870	     -0.34861617	     19.49970321	     11.41271335	      0.39756747	    -18.11334319	     -0.53077030	    -10.65550255	      7.13210936	      8.60801852	    -13.98556138	    -11.15508179	    -57.63269056	    -16.47099570	     -1.62778155	     -6.13981553	      0.96055326	      7.86253759	     -2.78517802
      3.05000000	     -5.98755350	     -6.76835575	      0.19124534	     -2.19495077	     -0.01436098	     -0.34844965	     18.81987672	     11.10982496	      0.18232617	    -17.63248745	     -0.22332474	    -10.24593442	      7.70505370	      9.57256464	    -13.63475416	    -10.74375948	    -58.28516385	    -14.59502951	     -2.50399027	     -9.52590660	      0.98262929	      7.57422587	     -2.55166735
      3.05500000	     -5.88581241	     -6.51701417	      0.35765513	     -2.18844431	     -0.01285996	     -0.34827268	     18.00733400	     10.79860903	     -0.01304897	    -17.15827556	      0.13504288	     -9.82229475	      7.99340078	     10.36365333	    -13.25631704	    -10.32229131	    -58.73768030	    -13.40738401	     -3.53749104	    -10.36032389	      0.87861195	      7.25793634	     -2.41885308
      3.06000000	     -5.95086296	     -6.24967094	      0.45396317	     -2.18190206	     -0.01158726	     -0.34806463	     17.35262728	     10.51187402	      0.05738740	    -16.62312826	      0.11953888	     -9.87490387	      8.87664978	     11.38032444	    -12.84195733	     -9.92579710	    -59.34973631	    -10.82851868	     -4.14485604	    -17.36833830	      0.96583110	      6.93302841	     -2.24240509
      3.06500000	     -5.97827788	     -5.99339411	      0.53114174	     -2.17540630	     -0.01031177	     -0.34783534	     16.70423196	     10.24768227	      0.09142280	    -16.22701768	      0.54303840	     -9.61598319	      8.29969643	     12.32326192	    -12.43557582	     -9.57535005	    -59.82188848	     -8.65426343	     -4.93277350	    -23.24115573	      1.00307801	      6.61976261	     -1.99894655
      3.07000000	     -5.95181650	     -5.41713327	      0.65976158	     -2.16908560	     -0.00863418	     -0.34776099	     16.00901385	      9.60362664	      0.08416246	    -15.81136084	      0.71125679	     -9.38602654	      9.03391744	     13.18299524	    -11.39905898	     -8.24574160	    -59.89621886	      2.29931551	     -4.77187146	    -78.09852822	      0.95817907	      5.97781018	     -1.82798558
      3.07500000	     -5.96115929	     -5.15512539	      0.71465214	     -2.16258728	     -0.00744248	     -0.34742715	     15.33580520	      9.35560758	      0.21571225	    -15.38128144	      0.87332480	     -9.39185476	      8.99280703	     14.03183238	    -10.99585178	     -7.99186868	    -60.10829185	      3.07764474	     -5.75661510	    -77.95022683	      0.97876165	      5.64643757	     -1.60003756
      3.08000000	     -5.99221807	     -4.88763685	      0.76015811	     -2.15611199	     -0.00633771	     -0.34711229	     14.69941945	      9.09785782	      0.32801184	    -14.97317988	      1.06772237	     -9.35695909	      8.93167546	     14.89623355	    -10.58005443	     -7.76231789	    -60.26980756	      3.81963386	     -6.70969156	    -77.78756838	      1.02478487	      5.31188190	     -1.37847975
      3.08500000	     -6.03722574	     -4.61788490	      0.79274678	     -2.14964976	     -0.00530520	     -0.34679186	     14.08430406	      8.83732837	      0.43746972	    -14.57645563	      1.27905804	     -9.29293918	      8.84529515	     15.76129347	    -10.15621560	     -7.55020041	    -60.37466798	      4.54886689	     -7.59258466	    -77.61861880	      1.08536280	      4.97559174	     -1.15388872
